<svg xmlns="http://www.w3.org/2000/svg" viewBox="-14 -14 228 228"><g fill="#3b2f4a"><path d="M 100 36.6 L 101.81 36.52 L 103.63 36.48 L 105.45 36.5 L 107.28 36.56 L 109.1 36.68 L 110.93 36.84 L 112.75 37.06 L 114.57 37.33 L 116.39 37.66 L 118.2 38.03 L 120 38.46 L 121.79 38.94 L 123.57 39.47 L 125.34 40.05 L 127.09 40.68 L 128.83 41.36 L 130.55 42.1 L 132.26 42.88 L 133.94 43.72 L 135.6 44.6 L 137.25 45.53 L 138.86 46.51 L 140.45 47.54 L 142.02 48.61 L 143.56 49.73 L 145.06 50.9 L 146.54 52.11 L 147.98 53.37 L 149.39 54.67 L 150.77 56.01 L 152.11 57.39 L 153.41 58.81 L 154.67 60.28 L 155.9 61.78 L 157.08 63.32 L 158.22 64.89 L 159.32 66.5 L 160.37 68.14 L 161.38 69.82 L 162.34 71.53 L 163.26 73.27 L 164.12 75.03 L 164.94 76.83 L 165.71 78.65 L 166.42 80.5 L 167.09 82.37 L 167.7 84.26 L 168.26 86.17 L 168.76 88.1 L 169.21 90.05 L 169.61 92.01 L 169.95 93.99 L 170.23 95.98 L 170.46 97.99 L 170.63 100 L 170.74 102.02 L 170.8 104.05 L 170.8 106.08 L 170.74 108.12 L 170.62 110.15 L 170.44 112.19 L 170.2 114.23 L 169.91 116.26 L 169.55 118.28 L 169.14 120.3 L 168.67 122.31 L 168.14 124.31 L 167.55 126.3 L 166.91 128.28 L 166.21 130.24 L 165.45 132.18 L 164.63 134.1 L 163.76 136.01 L 162.83 137.89 L 161.84 139.74 L 160.8 141.58 L 159.71 143.38 L 158.56 145.16 L 157.36 146.91 L 156.11 148.62 L 154.81 150.3 L 153.46 151.95 L 152.05 153.56 L 150.6 155.14 L 149.1 156.67 L 147.56 158.16 L 145.97 159.62 L 144.34 161.02 L 142.66 162.39 L 140.94 163.71 L 139.18 164.98 L 137.39 166.2 L 135.55 167.37 L 133.68 168.5 L 131.77 169.57 L 129.83 170.58 L 127.86 171.55 L 125.85 172.45 L 123.82 173.31 L 121.76 174.1 L 119.67 174.84 L 117.56 175.52 L 115.43 176.14 L 113.27 176.69 L 111.1 177.19 L 108.91 177.63 L 106.7 178 L 104.48 178.31 L 102.24 178.56 L 100 178.75 L 97.75 178.87 L 95.49 178.92 L 93.22 178.91 L 90.95 178.84 L 88.68 178.7 L 86.42 178.5 L 84.15 178.23 L 81.89 177.89 L 79.63 177.49 L 77.38 177.03 L 75.14 176.5 L 72.92 175.9 L 70.71 175.24 L 68.51 174.52 L 66.33 173.73 L 64.17 172.87 L 62.03 171.96 L 59.92 170.98 L 57.82 169.94 L 55.76 168.84 L 53.72 167.68 L 51.72 166.45 L 49.75 165.17 L 47.81 163.83 L 45.9 162.43 L 44.04 160.98 L 42.21 159.46 L 40.42 157.9 L 38.68 156.28 L 36.98 154.61 L 35.32 152.89 L 33.71 151.11 L 32.15 149.29 L 30.64 147.42 L 29.19 145.51 L 27.78 143.55 L 26.43 141.55 L 25.13 139.5 L 23.89 137.42 L 22.71 135.3 L 21.59 133.14 L 20.53 130.94 L 19.53 128.71 L 18.59 126.45 L 17.71 124.16 L 16.9 121.84 L 16.16 119.5 L 15.48 117.13 L 14.87 114.73 L 14.32 112.32 L 13.85 109.88 L 13.44 107.43 L 13.11 104.97 L 12.84 102.49 L 12.64 100 L 12.52 97.5 L 12.47 94.99 L 12.48 92.48 L 12.58 89.97 L 12.74 87.45 L 12.97 84.94 L 13.28 82.43 L 13.66 79.92 L 14.11 77.42 L 14.64 74.94 L 15.24 72.46 L 15.91 70 L 16.65 67.55 L 17.46 65.12 L 18.34 62.71 L 19.29 60.32 L 20.32 57.95 L 21.41 55.62 L 22.57 53.31 L 23.8 51.03 L 25.09 48.78 L 26.45 46.56 L 27.88 44.39 L 29.37 42.25 L 30.93 40.15 L 32.54 38.09 L 34.22 36.07 L 35.96 34.1 L 37.76 32.18 L 39.61 30.31 L 41.52 28.49 L 43.49 26.71 L 45.51 25 L 47.58 23.34 L 49.7 21.73 L 51.87 20.19 L 54.09 18.7 L 56.35 17.28 L 58.66 15.92 L 61.01 14.62 L 63.4 13.39 L 65.83 12.23 L 68.29 11.13 L 70.79 10.11 L 73.32 9.15 L 75.89 8.27 L 78.48 7.45 L 81.1 6.72 L 83.74 6.05 L 86.41 5.46 L 89.09 4.95 L 91.8 4.51 L 94.52 4.15 L 97.25 3.86 L 100 3.66 L 100 27.34 L 97.93 27.41 L 95.86 27.54 L 93.79 27.72 L 91.74 27.97 L 89.69 28.27 L 87.65 28.63 L 85.62 29.05 L 83.61 29.53 L 81.62 30.07 L 79.64 30.66 L 77.68 31.3 L 75.74 32.01 L 73.82 32.76 L 71.93 33.58 L 70.06 34.44 L 68.22 35.36 L 66.4 36.33 L 64.62 37.35 L 62.86 38.42 L 61.14 39.54 L 59.45 40.7 L 57.8 41.92 L 56.18 43.18 L 54.61 44.49 L 53.07 45.84 L 51.57 47.23 L 50.11 48.66 L 48.69 50.14 L 47.32 51.65 L 45.99 53.2 L 44.71 54.79 L 43.47 56.41 L 42.28 58.07 L 41.15 59.76 L 40.06 61.48 L 39.02 63.23 L 38.03 65 L 37.09 66.81 L 36.21 68.63 L 35.38 70.49 L 34.6 72.36 L 33.88 74.26 L 33.21 76.17 L 32.59 78.1 L 32.04 80.04 L 31.54 82 L 31.09 83.98 L 30.71 85.96 L 30.38 87.95 L 30.11 89.95 L 29.89 91.96 L 29.73 93.96 L 29.63 95.98 L 29.59 97.99 L 29.61 100 L 29.68 102.01 L 29.81 104.01 L 30 106.01 L 30.24 108 L 30.54 109.99 L 30.9 111.96 L 31.32 113.92 L 31.79 115.86 L 32.31 117.79 L 32.89 119.71 L 33.52 121.6 L 34.21 123.47 L 34.95 125.33 L 35.74 127.16 L 36.59 128.96 L 37.48 130.74 L 38.42 132.49 L 39.42 134.21 L 40.46 135.9 L 41.55 137.56 L 42.68 139.19 L 43.86 140.78 L 45.09 142.34 L 46.36 143.86 L 47.67 145.35 L 49.02 146.79 L 50.41 148.19 L 51.84 149.56 L 53.31 150.87 L 54.81 152.15 L 56.35 153.38 L 57.92 154.57 L 59.52 155.71 L 61.16 156.8 L 62.82 157.85 L 64.52 158.84 L 66.24 159.79 L 67.98 160.69 L 69.75 161.53 L 71.54 162.32 L 73.35 163.07 L 75.18 163.75 L 77.03 164.39 L 78.89 164.97 L 80.77 165.5 L 82.66 165.97 L 84.56 166.39 L 86.47 166.76 L 88.39 167.07 L 90.32 167.32 L 92.25 167.52 L 94.19 167.66 L 96.13 167.75 L 98.06 167.78 L 100 167.75 L 101.93 167.67 L 103.86 167.54 L 105.78 167.35 L 107.7 167.1 L 109.61 166.8 L 111.5 166.45 L 113.38 166.04 L 115.25 165.58 L 117.1 165.07 L 118.94 164.5 L 120.76 163.88 L 122.55 163.21 L 124.33 162.49 L 126.08 161.72 L 127.81 160.9 L 129.52 160.04 L 131.19 159.12 L 132.84 158.16 L 134.46 157.15 L 136.05 156.09 L 137.61 155 L 139.13 153.86 L 140.62 152.67 L 142.07 151.45 L 143.48 150.18 L 144.86 148.88 L 146.2 147.54 L 147.5 146.16 L 148.75 144.75 L 149.97 143.3 L 151.14 141.82 L 152.27 140.3 L 153.35 138.76 L 154.39 137.19 L 155.38 135.59 L 156.32 133.96 L 157.22 132.31 L 158.06 130.64 L 158.86 128.94 L 159.61 127.22 L 160.31 125.49 L 160.96 123.73 L 161.55 121.96 L 162.1 120.18 L 162.59 118.38 L 163.03 116.57 L 163.42 114.75 L 163.76 112.92 L 164.04 111.08 L 164.27 109.24 L 164.44 107.39 L 164.57 105.55 L 164.64 103.7 L 164.65 101.85 L 164.62 100 L 164.53 98.16 L 164.39 96.32 L 164.19 94.49 L 163.95 92.66 L 163.65 90.85 L 163.3 89.05 L 162.89 87.26 L 162.44 85.48 L 161.94 83.72 L 161.39 81.98 L 160.78 80.25 L 160.13 78.54 L 159.43 76.86 L 158.69 75.2 L 157.89 73.56 L 157.06 71.95 L 156.17 70.36 L 155.24 68.8 L 154.27 67.27 L 153.26 65.77 L 152.2 64.31 L 151.1 62.87 L 149.97 61.47 L 148.79 60.1 L 147.58 58.77 L 146.33 57.48 L 145.05 56.22 L 143.73 55 L 142.38 53.83 L 141 52.69 L 139.58 51.59 L 138.14 50.54 L 136.67 49.53 L 135.17 48.57 L 133.65 47.64 L 132.1 46.77 L 130.53 45.94 L 128.94 45.16 L 127.33 44.42 L 125.7 43.73 L 124.05 43.09 L 122.39 42.5 L 120.71 41.96 L 119.02 41.47 L 117.32 41.03 L 115.6 40.64 L 113.88 40.29 L 112.16 40 L 110.42 39.76 L 108.69 39.57 L 106.95 39.43 L 105.21 39.35 L 103.47 39.31 L 101.73 39.33 L 100 39.4 Z"/><path d="M 83.99 0.8 Q 91.96 18.9 102.26 39.51 Q 103.62 37.68 101.42 29.13 Q 92.13 13.49 83.99 0.8 Z"/></g><circle cx="91.66" cy="17.06" r="2" fill="#f7f4ee"/></svg>