<svg xmlns="http://www.w3.org/2000/svg" viewBox="0 0 443 443" fill="none">
<defs><linearGradient id="g" x1="0" y1="0" x2="1" y2="1">
<stop offset="0" stop-color="#F3E4BE"/><stop offset="0.45" stop-color="#E7D3A1"/>
<stop offset="1" stop-color="#CBAE6B"/></linearGradient></defs>
<path fill-rule="evenodd" fill="url(#g)" d="M345.00,373.00 C335.83,371.33 261.67,390.17 241.00,393.00 C220.33,395.83 224.17,391.17 221.00,390.00 C217.83,388.83 216.17,388.00 222.00,386.00 C227.83,384.00 245.83,382.00 256.00,378.00 C266.17,374.00 275.83,367.83 283.00,362.00 C290.17,356.17 294.83,351.00 299.00,343.00 C303.17,335.00 311.33,315.33 308.00,314.00 C304.67,312.67 289.50,329.50 279.00,335.00 C268.50,340.50 252.50,342.00 245.00,347.00 C237.50,352.00 236.83,362.33 234.00,365.00 C231.17,367.67 227.33,367.83 228.00,363.00 C228.67,358.17 248.33,332.83 238.00,336.00 C227.67,339.17 166.17,365.83 166.00,382.00 C165.83,398.17 225.33,427.17 237.00,433.00 C248.67,438.83 226.17,422.00 236.00,417.00 C245.83,412.00 277.83,410.33 296.00,403.00 C314.17,395.67 354.17,374.67 345.00,373.00 Z M72.00,294.00 C67.50,297.50 75.67,321.67 78.00,332.00 C80.33,342.33 82.17,348.33 86.00,356.00 C89.83,363.67 90.67,369.83 101.00,378.00 C111.33,386.17 135.50,399.00 148.00,405.00 C160.50,411.00 167.50,412.33 176.00,414.00 C184.50,415.67 208.33,424.17 199.00,415.00 C189.67,405.83 136.33,371.67 120.00,359.00 C103.67,346.33 103.67,342.67 101.00,339.00 C98.33,335.33 97.83,333.83 104.00,337.00 C110.17,340.17 127.50,353.33 138.00,358.00 C148.50,362.67 159.83,364.00 167.00,365.00 C174.17,366.00 174.67,366.83 181.00,364.00 C187.33,361.17 205.17,351.83 205.00,348.00 C204.83,344.17 189.67,345.17 180.00,341.00 C170.33,336.83 159.50,328.00 147.00,323.00 C134.50,318.00 117.50,315.83 105.00,311.00 C92.50,306.17 76.50,290.50 72.00,294.00 Z M415.00,243.00 C406.17,252.67 374.00,305.17 360.00,323.00 C346.00,340.83 336.17,345.83 331.00,350.00 C325.83,354.17 325.00,355.00 329.00,348.00 C333.00,341.00 349.17,322.00 355.00,308.00 C360.83,294.00 365.33,275.83 364.00,264.00 C362.67,252.17 350.83,237.00 347.00,237.00 C343.17,237.00 345.50,253.33 341.00,264.00 C336.50,274.67 325.33,288.17 320.00,301.00 C314.67,313.83 314.50,328.67 309.00,341.00 C303.50,353.33 280.67,371.33 287.00,375.00 C293.33,378.67 332.50,368.00 347.00,363.00 C361.50,358.00 364.83,355.67 374.00,345.00 C383.17,334.33 395.50,312.33 402.00,299.00 C408.50,285.67 410.83,274.33 413.00,265.00 C415.17,255.67 423.83,233.33 415.00,243.00 Z M60.00,165.00 C44.33,165.00 15.67,226.67 10.00,239.00 C4.33,251.33 21.67,230.17 26.00,239.00 C30.33,247.83 31.50,277.67 36.00,292.00 C40.50,306.33 46.17,314.50 53.00,325.00 C59.83,335.50 77.33,367.67 77.00,355.00 C76.67,342.33 55.67,270.67 51.00,249.00 C46.33,227.33 48.67,229.67 49.00,225.00 C49.33,220.33 51.00,216.33 53.00,221.00 C55.00,225.67 57.33,243.17 61.00,253.00 C64.67,262.83 69.00,272.17 75.00,280.00 C81.00,287.83 88.83,294.67 97.00,300.00 C105.17,305.33 118.00,310.17 124.00,312.00 C130.00,313.83 135.83,317.17 133.00,311.00 C130.17,304.83 113.00,285.83 107.00,275.00 C101.00,264.17 101.67,252.50 97.00,246.00 C92.33,239.50 81.50,238.33 79.00,236.00 C76.50,233.67 77.83,231.50 82.00,232.00 C86.17,232.50 107.67,250.17 104.00,239.00 C100.33,227.83 75.67,165.00 60.00,165.00 Z M366.00,89.00 C362.17,91.00 372.83,131.33 377.00,149.00 C381.17,166.67 388.83,182.83 391.00,195.00 C393.17,207.17 391.67,223.00 390.00,222.00 C388.33,221.00 385.00,199.17 381.00,189.00 C377.00,178.83 374.50,170.00 366.00,161.00 C357.50,152.00 338.67,140.17 330.00,135.00 C321.33,129.83 317.33,130.17 314.00,130.00 C310.67,129.83 306.83,128.50 310.00,134.00 C313.17,139.50 327.17,152.67 333.00,163.00 C338.83,173.33 339.83,188.33 345.00,196.00 C350.17,203.67 365.00,207.67 364.00,209.00 C363.00,210.33 336.00,192.50 339.00,204.00 C342.00,215.50 366.33,278.00 382.00,278.00 C397.67,278.00 427.17,216.17 433.00,204.00 C438.83,191.83 420.17,209.17 417.00,205.00 C413.83,200.83 416.83,190.33 414.00,179.00 C411.17,167.67 408.00,152.00 400.00,137.00 C392.00,122.00 369.83,87.00 366.00,89.00 Z M247.00,27.00 C238.17,25.50 243.00,27.33 249.00,32.00 C255.00,36.67 275.50,49.17 283.00,55.00 C290.50,60.83 288.00,62.67 294.00,67.00 C300.00,71.33 311.00,74.67 319.00,81.00 C327.00,87.33 338.67,100.67 342.00,105.00 C345.33,109.33 341.67,108.50 339.00,107.00 C336.33,105.50 332.00,99.67 326.00,96.00 C320.00,92.33 312.17,88.00 303.00,85.00 C293.83,82.00 277.83,79.00 271.00,78.00 C264.17,77.00 267.33,76.00 262.00,79.00 C256.67,82.00 237.33,91.50 239.00,96.00 C240.67,100.50 262.50,102.00 272.00,106.00 C281.50,110.00 286.00,116.00 296.00,120.00 C306.00,124.00 319.67,124.83 332.00,130.00 C344.33,135.17 364.50,154.17 370.00,151.00 C375.50,147.83 368.00,123.67 365.00,111.00 C362.00,98.33 358.17,84.33 352.00,75.00 C345.83,65.67 336.33,60.67 328.00,55.00 C319.67,49.33 315.50,45.67 302.00,41.00 C288.50,36.33 255.83,28.50 247.00,27.00 Z M278.00,61.00 C278.50,44.83 220.50,15.83 209.00,10.00 C197.50,4.17 216.67,22.17 209.00,26.00 C201.33,29.83 177.17,29.00 163.00,33.00 C148.83,37.00 135.17,43.83 124.00,50.00 C112.83,56.17 83.33,69.83 96.00,70.00 C108.67,70.17 179.00,53.67 200.00,51.00 C221.00,48.33 227.83,49.83 222.00,54.00 C216.17,58.17 181.00,66.17 165.00,76.00 C149.00,85.83 127.83,114.33 126.00,113.00 C124.17,111.67 162.33,72.00 154.00,68.00 C145.67,64.00 94.67,77.33 76.00,89.00 C57.33,100.67 50.33,119.50 42.00,138.00 C33.67,156.50 15.50,206.83 26.00,200.00 C36.50,193.17 96.33,102.17 105.00,97.00 C113.67,91.83 79.67,150.50 78.00,169.00 C76.33,187.50 89.83,208.83 95.00,208.00 C100.17,207.17 101.50,177.83 109.00,164.00 C116.50,150.17 124.83,136.17 140.00,125.00 C155.17,113.83 188.17,104.67 200.00,97.00 C211.83,89.33 210.00,77.33 211.00,79.00 C212.00,80.67 194.83,110.00 206.00,107.00 C217.17,104.00 277.50,77.17 278.00,61.00 Z "/></svg>